<?xml version="1.0" encoding="utf-8"?>
<!-- Generator: Adobe Illustrator 22.0.1, SVG Export Plug-In . SVG Version: 6.00 Build 0)  -->
<svg version="1.1" id="Ebene_1" xmlns="http://www.w3.org/2000/svg" xmlns:xlink="http://www.w3.org/1999/xlink" x="0px" y="0px"
	 viewBox="0 0 114 66" style="enable-background:new 0 0 114 66;" xml:space="preserve">
<style type="text/css">
	.st0{enable-background:new    ;}
	.st1{fill:#FFFFFF;}
</style>
<title>ZU KUNFTS FOR UM G E</title>
<desc>Created with Sketch.</desc>
<g id="iPhone-8" transform="translate(-21.000000, -13.000000)">
	<g class="st0">
		<path class="st1" d="M22,30.4v-1.6l5.9-12.4H22v-2.2h8.6v1.6l-5.9,12.4h5.9v2.2H22z"/>
		<path class="st1" d="M43.6,26.6c0,2.4-1.9,4-4.3,4c-2.4,0-4.3-1.6-4.3-4V14.2h2.3v12.4c0,1.1,0.8,2,2,2s2-0.9,2-2V14.2h2.3V26.6z"
			/>
		<path class="st1" d="M65.6,22.2l4.3,8.1h-2.6l-4-7.5v7.5H61V14.2h2.3v7.5l3.8-7.5h2.5L65.6,22.2z"/>
		<path class="st1" d="M82.6,26.6c0,2.4-1.9,4-4.3,4c-2.4,0-4.3-1.6-4.3-4V14.2h2.3v12.4c0,1.1,0.8,2,2,2s2-0.9,2-2V14.2h2.3V26.6z"
			/>
		<path class="st1" d="M95.6,30.4h-2.3l-4.1-10.9v10.9H87V14.2h2.3l4.1,10.9V14.2h2.2V30.4z"/>
		<path class="st1" d="M102.3,30.4H100V14.2h8.6v2.2h-6.3v4.8h5.9v2.2h-5.9V30.4z"/>
		<path class="st1" d="M116.2,30.4v-14H113v-2.2h8.6v2.2h-3.2v14H116.2z"/>
		<path class="st1" d="M132.4,18c0-1.1-0.8-2-2-2s-2,0.9-2,2v0.6c0,0.6,0.2,1.1,0.6,1.5c0.1,0.1,0.3,0.2,0.3,0.2l3.3,1.9
			c0.4,0.2,0.6,0.4,1,0.7c0.7,0.7,1.1,1.7,1.1,2.8v0.9c0,2.4-1.9,4-4.3,4c-2.4,0-4.3-1.7-4.3-4v-0.5h2.3v0.5c0,1.1,0.8,2,2,2
			s2-0.9,2-2v-0.9c0-0.6-0.2-1.1-0.6-1.5c-0.1-0.1-0.3-0.2-0.3-0.2l-3.3-1.9c-0.4-0.2-0.6-0.4-1-0.7c-0.7-0.7-1.1-1.7-1.1-2.8V18
			c0-2.4,2-4,4.3-4c2.4,0,4.3,1.7,4.3,4v0.5h-2.3V18z"/>
	</g>
	<g>
	</g>
	<g class="st0">
		<path class="st1" d="M24.3,54.4H22V38.2h8.6v2.2h-6.3v4.8h5.9v2.2h-5.9V54.4z"/>
		<path class="st1" d="M43.6,42v8.6c0,2.4-1.9,4-4.3,4c-2.4,0-4.3-1.6-4.3-4V42c0-2.4,1.9-4,4.3-4C41.7,37.9,43.6,39.6,43.6,42z
			 M41.3,42c0-1.1-0.8-2-2-2s-2,0.9-2,2v8.6c0,1.1,0.8,2,2,2s2-0.9,2-2V42z"/>
		<path class="st1" d="M52.3,38.2c2.4,0,4.3,1.8,4.3,4.2v0.7c0,2-1.4,3.6-3.2,4l3.7,7.2h-2.5L51,47.3h-0.7v7.1H48V38.2H52.3z
			 M52.3,40.4h-2v4.8h2c1.1,0,2-0.9,2-2v-0.7C54.3,41.3,53.4,40.4,52.3,40.4z"/>
		<path class="st1" d="M82.6,50.6c0,2.4-1.9,4-4.3,4c-2.4,0-4.3-1.6-4.3-4V38.2h2.3v12.4c0,1.1,0.8,2,2,2s2-0.9,2-2V38.2h2.3V50.6z"
			/>
		<path class="st1" d="M95.6,54.4h-2.2V43.3l-2.1,6l-2.1-6v11.1H87V38.2h2.2l2.1,5.9l2.1-5.9h2.2V54.4z"/>
	</g>
	<g>
	</g>
	<g class="st0">
		<path class="st1" d="M30.6,69.1v5.5c0,2.4-1.9,4-4.3,4c-2.4,0-4.3-1.6-4.3-4V66c0-2.4,1.9-4,4.3-4c1.9,0,3.6,1.1,4.1,2.8l-2.2,0.6
			C28,64.6,27.3,64,26.3,64c-1.2,0-2,0.9-2,2v8.6c0,1.1,0.8,2,2,2s2-0.9,2-2v-3.3H26v-2.2H30.6z"/>
		<path class="st1" d="M48,62.2h8.6v2.2h-6.3v4.8h5.2v2.2h-5.2v4.9h6.3v2.2H48V62.2z"/>
		<path class="st1" d="M65.3,62.2c2.4,0,4.3,1.8,4.3,4.2v0.7c0,2-1.4,3.6-3.2,4l3.7,7.2h-2.5L64,71.3h-0.7v7.1H61V62.2H65.3z
			 M65.3,64.4h-2v4.8h2c1.1,0,2-0.9,2-2v-0.7C67.3,65.3,66.4,64.4,65.3,64.4z"/>
	</g>
	<g>
	</g>
	<g class="st0">
		<path class="st1" d="M89.7,62.2H93l3.4,16.1h-2.3l-0.7-3.4h-4.1l-0.7,3.4h-2.3L89.7,62.2z M89.7,72.8h3.2l-1.6-7.6L89.7,72.8z"/>
	</g>
</g>
</svg>
